<?xml version="1.0" encoding="UTF-8"?>
<!--Generator: Apple Native CoreSVG 232.5-->
<svg fill="rgba(170, 170, 170)" version="1.1" xmlns="http://www.w3.org/2000/svg" xmlns:xlink="http://www.w3.org/1999/xlink" width="49.3408" height="52.8748">
 <g>
  <rect height="52.8748" opacity="0" width="49.3408" x="0" y="0"/>
  <path d="M3.49121 42.0014L20.1904 51.6205C23.0713 53.2807 25.8789 53.3051 28.8086 51.6205L45.5078 42.0014C47.7783 40.683 48.999 39.3891 48.999 35.849L48.999 16.8549C48.999 13.4125 47.7539 12.1674 45.6787 10.9711L28.9307 1.30312C25.9033-0.454695 23.0225-0.405867 20.0684 1.30312L3.34473 10.9711C1.24512 12.1674 0 13.4125 0 16.8549L0 35.849C0 39.3891 1.24512 40.683 3.49121 42.0014ZM5.68848 38.5101C4.37012 37.7533 3.93066 37.0941 3.93066 35.7514L3.93066 16.9525C3.93066 15.7318 4.3457 15.1215 5.51758 14.4623L21.7041 5.03847C23.6572 3.93984 25.293 3.89101 27.2949 5.03847L43.4814 14.4623C44.6533 15.1215 45.0684 15.7318 45.0684 16.9525L45.0684 35.7514C45.0684 37.0941 44.6533 37.7533 43.3105 38.5101L27.1729 47.8607C25.2441 48.9594 23.7061 48.935 21.8262 47.8607Z" fill="rgba(170, 170, 170)" fill-opacity="0.85"/>
 </g>
</svg>
